<mxfile host="app.diagrams.net" modified="2024-01-08T10:01:25.035Z" agent="Mozilla/5.0 (Windows NT 10.0; Win64; x64; rv:109.0) Gecko/20100101 Firefox/115.0" version="22.1.17" etag="l_9j8G6d-y-dxmzLvVUA" type="github">
  <diagram name="Page-1" id="0fikPwKDtdRQpMPNvnlu">
    <mxGraphModel>
      <root>
        <mxCell id="0" />
        <mxCell id="1" parent="0" />
      </root>
    </mxGraphModel>
  </diagram>
</mxfile>
